# AST/ASF file generated using VICON BodyLanguage
# -----------------------------------------------
:version 1.10
:name VICON
:units
  mass 1.0
  length 0.45
  angle deg
:documentation
   .ast/.asf automatically generated from VICON data using
   VICON BodyBuilder and BodyLanguage model FoxedUp or BRILLIANT.MOD
:root
   order TX TY TZ RX RY RZ
   axis XYZ
   position 0 0 0  
   orientation 0 0 0 
:bonedata
  begin
     id 1 
     name lhipjoint
     direction 0.62366 -0.717238 0.310833 
     length 2.53602 
     axis 0 0 0  XYZ
  end
  begin
     id 2 
     name lfemur
     direction 0.34202 -0.939693 0  
     length 7.40817  
     axis 0 0 20  XYZ
    dof rx ry rz
    limits (-160.0 20.0)
           (-70.0 70.0)
           (-60.0 70.0)
  end
  begin
     id 3 
     name ltibia
     direction 0.34202 -0.939693 0   
     length 7.7045   
     axis 0 0 20   XYZ
    dof rx
    limits (-10.0 170.0)
  end
  begin
     id 4 
     name lfoot
     direction 0.0673888 -0.185149 0.980397   
     length 2.09456   
     axis -90 7.62852e-016 20   XYZ
    dof rx rz
    limits (-45.0 90.0)
           (-70.0 20.0)
  end
  begin
     id 5 
     name ltoes
     direction 1.53575e-011 -4.21994e-011 1   
     length 1.05543   
     axis -90 7.62852e-016 20   XYZ
    dof rx
    limits (-90.0 20.0)
  end
  begin
     id 6 
     name rhipjoint
     direction -0.489018 -0.800347 0.346851   
     length 2.27268  
     axis 0 0 0  XYZ 
  end
  begin
     id 7 
     name rfemur
     direction -0.34202 -0.939693 0   
     length 7.55487   
     axis 0 0 -20   XYZ
    dof rx ry rz
    limits (-160.0 20.0)
           (-70.0 70.0)
           (-70.0 60.0)
  end
  begin
     id 8 
     name rtibia
     direction -0.34202 -0.939693 0   
     length 7.78969   
     axis 0 0 -20   XYZ
    dof rx
    limits (-10.0 170.0)
 end
 begin
     id 9 
     name rfoot
     direction -0.0859318 -0.236096 0.967923   
     length 2.19143  
     axis -90 -7.62852e-016 -20   XYZ
    dof rx rz
    limits (-45.0 90.0)
           (-20.0 70.0)
  end
  begin
     id 10 
     name rtoes
     direction -1.53538e-011 -4.21989e-011 1   
     length 1.09845   
     axis -90 -7.62852e-016 -20   XYZ
    dof rx
    limits (-90.0 20.0)
  end
  begin
     id 11 
     name lowerback
     direction -0.00762546 0.998978 -0.0445553   
     length 1.98161   
     axis 0 0 0   XYZ
    dof rx ry rz
    limits (-20.0 45.0)
           (-30.0 30.0)
           (-30.0 30.0)
  end
  begin
     id 12 
     name upperback
     direction 0.0422361 0.998867 -0.0219156   
     length 1.97558   
     axis 0 0 0   XYZ
    dof rx ry rz
    limits (-20.0 45.0)
           (-30.0 30.0)
           (-30.0 30.0)
  end
  begin
     id 13 
     name thorax
     direction 0.0442465 0.999021 7.47603e-005   
     length 1.97799   
     axis 0 0 0   XYZ
    dof rx ry rz
    limits (-20.0 45.0)
           (-30.0 30.0)
           (-30.0 30.0)
  end
  begin
     id 14 
     name lowerneck
     direction 0.00312169 0.984641 0.174564   
     length 1.78995   
     axis 0 0 0   XYZ
    dof rx ry rz
    limits (-20.0 45.0)
           (-30.0 30.0)
           (-30.0 30.0)
  end
  begin
     id 15 
     name upperneck
     direction -0.0383028 0.985255 -0.166749   
     length 1.83053   
     axis 0 0 0   XYZ
    dof rx ry rz
    limits (-20.0 45.0)
           (-30.0 30.0)
           (-30.0 30.0)
  end
  begin
     id 16
     name head
     direction -0.0129546 0.997059 -0.0755386  
     length 1.84088  
     axis 0 0 0   XYZ
    dof rx ry rz
    limits (-20.0 45.0)
           (-30.0 30.0)
           (-30.0 30.0)
  end
  begin
     id 17 
     name lclavicle
     direction 0.912857 0.370519 -0.171488  
     length 3.51279  
     axis 0 0 0   XYZ
    dof ry rz
    limits (-20.0 10.0)
           (0.0 20.0)
  end
  begin
     id 18 
     name lhumerus
     direction 1 -4.48962e-011 3.64361e-027   
     length 4.95663   
     axis 180 -30 -90   XYZ
    dof rx ry rz
    limits (-60.0 90.0)
           (-90.0 90.0)
           (-90.0 90.0)
  end
  begin
     id 19
     name lradius
     direction 1 -4.48974e-011 5.97202e-027   
     length 3.38177   
     axis 180 -30 -90   XYZ
    dof rx
    limits (-10.0 170.0)
  end
  begin
     id 20
     name lwrist
     direction 1 -4.4896e-011 9.83288e-027   
     length 1.69088   
     axis -9.31221e-015 90 90   XYZ
    dof ry
    limits (-180.0 0.0)
 end
  begin
     id 21 
     name lhand
     direction 1 -4.4902e-011 1.96551e-026   
     length 0.662909   
     axis -1.25475e-014 90 90   XYZ
    dof rx rz
    limits (-90.0 90.0)
           (-45.0 45.0)
  end
  begin
     id 22 
     name lfingers
     direction 1 -4.48971e-011 3.93277e-026   
     length 0.534454   
     axis -2.50945e-014 90 90   XYZ
    dof rx
    limits (0.0 90.0)
  end
  begin
     id 23
     name lthumb
     direction 0.707107 -6.34933e-011 0.707107   
     length 0.767373   
     axis -90 45 -4.80359e-014   XYZ
    dof rx rz
    limits (-45.0 45.0)
           (-45.0 45.0)
  end
  begin
     id 24 
     name rclavicle
     direction -0.900919 0.395364 -0.178976   
     length 3.40627  
     axis 0 0 0   XYZ 
    dof ry rz
    limits (-10.0 20.0)
           (-20.0 0.0)
  end
  begin
     id 25 
     name rhumerus
     direction -1 -4.48969e-011 1.03875e-027  
     length 5.08365   
     axis 180 30 90   XYZ
    dof rx ry rz
    limits (-90.0 60.0)
           (-90.0 90.0)
           (-90.0 90.0)
  end
  begin
     id 26 
     name rradius
     direction -1 -4.48951e-011 5.02733e-027   
     length 3.35984   
     axis 180 30 90   XYZ
    dof rx
    limits (-10.0 170.0)
  end
  begin
     id 27 
     name rwrist
     direction -1 -4.49011e-011 9.82828e-027   
     length 1.67992   
     axis -9.31221e-015 -90 -90   XYZ
    dof ry
    limits (-180.0 0.0)
  end
  begin
     id 28
     name rhand
     direction -1 -4.48894e-011 1.96774e-026   
     length 0.820764   
     axis -1.25475e-014 -90 -90   XYZ
    dof rx rz
    limits (-90.0 90.0)
           (-45.0 45.0)
  end
  begin
     id 29
     name rfingers
     direction -1 -4.49095e-011 3.92833e-026   
     length 0.661721   
     axis -2.50945e-014 -90 -90   XYZ
    dof rx
    limits (0.0 90.0)
  end
  begin
     id 30
     name rthumb
     direction -0.707107 -6.34881e-011 0.707107   
     length 0.950103   
     axis -90 -45 4.80359e-014   XYZ
    dof rx rz
    limits (-45.0 45.0)
           (-45.0 45.0)
  end
:hierarchy
  begin
    root lhipjoint rhipjoint lowerback
    lhipjoint lfemur
    lfemur ltibia
    ltibia lfoot
    lfoot ltoes
    rhipjoint rfemur
    rfemur rtibia
    rtibia rfoot
    rfoot rtoes
    lowerback upperback
    upperback thorax
    thorax lowerneck lclavicle rclavicle
    lowerneck upperneck
    upperneck head
    lclavicle lhumerus
    lhumerus lradius
    lradius lwrist
    lwrist lhand lthumb
    lhand lfingers
    rclavicle rhumerus
    rhumerus rradius
    rradius rwrist
    rwrist rhand rthumb
    rhand rfingers
  end

#!OML:ASF I:\golf\golf\golf 2\Subject 1\2002-09-07\Subject1.ASF
:FULLY-SPECIFIED
:DEGREES
76
root -6.00506 17.8651 0.24566 -77.4138 85.2175 -94.7493
lowerback -0.508099 2.09849 -1.33322
upperback 3.6904 2.80513 3.86039
thorax 3.83715 1.32697 4.85436
lowerneck -15.0044 -1.88904 1.34956
upperneck 39.4996 0.176232 -3.75666
head 16.8262 0.324994 -1.71916
rclavicle -2.62396e-014 -3.81667e-014
rhumerus -7.32594 -5.02549 -102.332
rradius 20.3761
rwrist -36.8201
rhand -15.7323 -7.90165
rfingers 7.12502
rthumb 10.4584 -37.6215
lclavicle -2.62396e-014 -3.81667e-014
lhumerus -8.50133 -39.6305 108.772
lradius 21.4635
lwrist 39.2727
lhand -0.132161 72.5751
lfingers 7.12502
lthumb -154.536 79.106
rfemur -28.356 -0.275162 12.3179
rtibia 23.2331
rfoot -7.77099 -9.02637
rtoes 16.8145
lfemur -29.3412 9.94879 -7.30473
ltibia 27.309
lfoot -10.0364 -0.795589
ltoes -20.4877
77
root -6.00519 17.8653 0.250086 -77.9845 85.1854 -95.3289
lowerback -0.506315 2.08175 -1.30354
upperback 3.70613 2.78217 3.8525
thorax 3.8563 1.31614 4.82915
lowerneck -15.0533 -1.86884 1.43048
upperneck 39.5221 0.198328 -3.80147
head 16.8513 0.339635 -1.75115
rclavicle -2.22639e-014 -7.95139e-015
rhumerus -7.31248 -4.97204 -102.339
rradius 20.3386
rwrist -36.7812
rhand -15.682 -7.79966
rfingers 7.12502
rthumb 10.507 -37.5171
lclavicle -2.22639e-014 -7.95139e-015
lhumerus -8.35521 -39.2974 108.672
lradius 21.3394
lwrist 39.2123
lhand 0.27851 72.4284
lfingers 7.12502
lthumb -154.143 79.3094
rfemur -28.3575 -0.181537 12.3391
rtibia 23.2546
rfoot -8.33669 -9.04181
rtoes 21.4417
lfemur -29.3701 10.0062 -7.28093
ltibia 27.3197
lfoot -10.0296 -0.847053
ltoes -20.7847
78
root -6.00536 17.865 0.251058 -78.9503 85.2408 -96.2868
lowerback -0.453633 2.08419 -1.25801
upperback 3.70346 2.78535 3.76534
thorax 3.8292 1.32046 4.70946
lowerneck -15.0496 -1.89391 1.54632
upperneck 39.5 0.115458 -3.7994
head 16.8332 0.322528 -1.78559
rclavicle -1.37161e-014 -3.18055e-015
rhumerus -7.33331 -5.02753 -102.341
rradius 20.3721
rwrist -36.7292
rhand -15.4069 -7.83119
rfingers 7.12502
rthumb 10.7723 -37.535
lclavicle -1.37161e-014 -3.18055e-015
lhumerus -8.31194 -39.2425 108.571
lradius 21.2813
lwrist 39.379
lhand 0.496735 72.2644
lfingers 7.12502
lthumb -153.934 79.5041
rfemur -28.3373 -0.279443 12.3062
rtibia 23.2664
rfoot -8.43165 -9.04933
rtoes 21.944
lfemur -29.4042 9.94208 -7.33164
ltibia 27.3443
lfoot -10.0369 -0.881501
ltoes -20.3846
79
root -6.00494 17.8631 0.254248 -79.7679 85.2298 -97.0963
lowerback -0.405913 2.10577 -1.20047
upperback 3.7019 2.8137 3.73206
thorax 3.80203 1.33746 4.64054
lowerneck -15.0614 -1.93806 1.55876
upperneck 39.478 0.0259509 -3.76574
head 16.8198 0.291551 -1.78852
rclavicle 3.63776e-014 3.97569e-015
rhumerus -7.3396 -5.1705 -102.302
rradius 20.4
rwrist -36.7034
rhand -15.1111 -7.89861
rfingers 7.12502
rthumb 11.0576 -37.5873
lclavicle 3.63776e-014 3.97569e-015
lhumerus -8.38227 -39.5795 108.552
lradius 21.474
lwrist 40.1423
lhand 0.137561 72.6962
lfingers 7.12502
lthumb -154.278 79.0221
rfemur -28.3193 -0.271999 12.3229
rtibia 23.2775
rfoot -8.44606 -9.11978
rtoes 22.0882
lfemur -29.431 9.91222 -7.29442
ltibia 27.3717
lfoot -10.0278 -0.983815
ltoes -19.4772
